<svg version="1.1" width="221.91667545267785" height="34.75255049498148" viewBox="89.01356449978162 94.912 221.91667545267785 34.75255049498148" xmlns="http://www.w3.org/2000/svg">
<path id="path0" d="M164.539 108.347 L 164.539 121.782 166.994 121.720 L 169.449 121.658 169.517 120.840 C 169.598 119.859,169.563 119.865,170.651 120.652 C 172.484 121.981,176.406 122.556,179.006 121.879 C 190.925 118.775,188.560 101.595,176.214 101.595 C 173.739 101.595,169.997 102.867,169.995 103.710 C 169.995 103.800,169.898 103.873,169.781 103.873 C 169.650 103.873,169.544 102.152,169.508 99.454 L 169.449 95.035 166.994 94.974 L 164.539 94.912 164.539 108.347 M283.252 99.051 C 283.252 102.354,283.331 102.237,281.069 102.237 L 279.433 102.237 279.369 103.819 L 279.304 105.401 281.145 105.401 C 283.448 105.401,283.252 104.745,283.252 112.437 L 283.252 118.783 283.795 119.711 C 284.752 121.344,285.510 121.639,288.980 121.735 L 291.980 121.817 291.980 120.156 L 291.980 118.494 290.138 118.494 C 288.504 118.494,288.225 118.434,287.683 117.968 L 287.070 117.441 287.070 111.476 L 287.070 105.510 289.525 105.448 L 291.980 105.387 291.980 103.728 L 291.980 102.069 289.811 102.174 C 287.040 102.307,287.204 102.491,287.132 99.173 L 287.070 96.345 285.161 96.282 L 283.252 96.219 283.252 99.051 M97.930 101.687 C 87.288 103.596,85.721 117.040,95.680 120.996 C 98.697 122.194,103.462 121.702,105.306 120.001 C 105.986 119.374,106.056 119.466,106.056 120.990 C 106.056 124.426,104.910 125.264,99.945 125.461 L 96.781 125.586 96.717 127.421 C 96.636 129.760,96.433 129.644,100.623 129.664 C 106.651 129.694,109.124 128.503,110.669 124.822 C 111.173 123.624,111.174 123.608,111.179 112.821 L 111.184 102.019 108.674 102.019 L 106.165 102.019 106.097 102.837 C 106.017 103.800,105.977 103.812,105.094 103.143 C 103.515 101.947,100.219 101.276,97.930 101.687 M123.312 101.697 C 117.076 103.004,113.642 107.484,114.376 113.354 C 115.634 123.425,131.290 125.541,135.719 116.238 C 139.396 108.515,132.021 99.873,123.312 101.697 M148.500 101.611 C 136.798 103.419,135.702 118.862,147.070 121.765 C 156.638 124.208,164.537 115.620,160.364 107.313 C 158.430 103.464,153.096 100.901,148.500 101.611 M198.254 101.680 C 188.174 103.267,185.806 116.435,194.787 120.963 C 198.144 122.656,202.839 122.553,206.037 120.715 C 207.122 120.093,209.476 117.944,209.261 117.773 C 209.208 117.732,208.397 117.190,207.457 116.569 L 205.750 115.441 204.729 116.302 C 201.369 119.135,196.312 118.215,194.760 114.488 C 194.304 113.393,193.518 113.503,202.300 113.430 L 210.038 113.366 210.027 111.149 C 209.996 105.162,204.453 100.704,198.254 101.680 M221.328 102.065 C 220.562 102.291,219.890 102.693,219.309 103.273 L 218.440 104.143 218.440 103.139 C 218.440 101.913,218.315 101.864,215.385 101.955 L 213.312 102.019 213.312 111.839 L 213.312 121.658 215.876 121.720 L 218.440 121.781 218.440 116.088 C 218.440 107.503,219.228 106.085,223.883 106.303 L 225.095 106.359 225.159 104.331 C 225.245 101.533,224.543 101.117,221.328 102.065 M243.535 102.105 C 235.828 104.143,233.351 113.353,238.932 119.222 C 242.561 123.039,249.649 123.100,253.857 119.349 C 255.501 117.885,255.459 117.768,252.745 116.217 C 252.568 116.116,252.095 116.395,251.475 116.967 C 247.514 120.618,240.533 118.692,240.005 113.803 L 239.935 113.148 248.093 113.091 L 256.251 113.033 256.130 111.017 C 255.741 104.540,249.915 100.417,243.535 102.105 M266.776 101.836 C 263.966 102.273,260.338 103.938,260.338 104.790 C 260.338 105.075,261.871 106.929,262.107 106.929 C 262.211 106.929,262.764 106.643,263.336 106.294 C 267.486 103.762,272.374 105.056,272.082 108.608 C 271.983 109.808,271.224 110.103,267.143 110.527 C 261.146 111.150,259.028 112.690,259.036 116.421 C 259.047 121.728,266.890 124.217,271.410 120.347 C 272.348 119.545,272.777 119.396,272.777 119.872 C 272.777 120.894,274.648 121.768,276.838 121.768 L 278.470 121.768 278.406 120.185 C 278.344 118.665,278.320 118.603,277.796 118.588 C 276.029 118.537,276.079 118.721,275.997 111.948 C 275.927 106.179,275.805 105.583,274.357 103.983 C 272.926 102.401,269.457 101.419,266.776 101.836 M299.740 102.038 C 296.473 102.767,294.599 104.788,294.599 107.581 C 294.599 110.800,296.028 111.889,302.344 113.484 C 306.438 114.518,307.543 115.608,306.586 117.666 C 305.412 120.190,299.274 119.388,298.101 116.556 C 297.717 115.628,294.148 115.380,294.172 116.283 C 294.369 123.616,310.125 124.128,310.882 116.826 C 311.251 113.262,309.558 111.701,303.900 110.391 C 299.476 109.367,298.527 108.806,298.527 107.212 C 298.527 103.907,305.022 103.860,306.386 107.155 C 306.624 107.729,306.733 107.772,308.124 107.839 C 310.531 107.955,310.622 107.866,309.974 106.029 C 308.852 102.847,304.215 101.039,299.740 102.038 M248.853 105.488 C 250.575 106.250,252.642 109.132,252.115 110.038 C 251.853 110.490,240.044 110.216,240.044 109.758 C 240.044 108.343,241.872 106.113,243.584 105.441 C 245.678 104.620,246.915 104.631,248.853 105.488 M201.349 105.946 C 202.715 106.352,203.480 106.942,204.285 108.211 C 205.316 109.836,205.522 109.765,199.758 109.765 L 194.606 109.765 194.752 109.165 C 195.330 106.792,198.685 105.155,201.349 105.946 M127.285 106.275 C 131.842 107.683,132.993 113.299,129.362 116.408 C 127.177 118.278,123.616 118.262,121.524 116.373 C 116.628 111.949,120.977 104.327,127.285 106.275 M152.602 106.450 C 156.718 108.271,157.517 114.004,154.009 116.545 C 149.898 119.523,144.241 116.794,144.251 111.839 C 144.260 107.594,148.705 104.726,152.602 106.450 M177.087 106.174 C 184.485 108.101,182.022 119.052,174.504 117.659 C 168.012 116.455,167.820 107.733,174.250 106.144 C 175.689 105.788,175.603 105.788,177.087 106.174 M103.051 106.773 C 107.512 109.388,106.790 115.606,101.853 117.072 C 95.957 118.823,91.648 111.849,96.010 107.615 C 97.743 105.934,100.962 105.549,103.051 106.773 M272.175 114.316 C 272.115 115.983,271.852 116.700,270.954 117.647 C 268.236 120.513,262.873 119.633,262.873 116.322 C 262.873 114.338,264.158 113.609,268.510 113.123 C 270.063 112.950,271.384 112.758,271.445 112.698 C 271.949 112.194,272.228 112.813,272.175 114.316 " stroke="none" fill="#145138" fill-rule="evenodd"></path>
</svg>